<?xml version="1.0" standalone="no"?>
<!DOCTYPE svg PUBLIC "-//W3C//DTD SVG 20010904//EN"
 "http://www.w3.org/TR/2001/REC-SVG-20010904/DTD/svg10.dtd">
<svg version="1.0" xmlns="http://www.w3.org/2000/svg"
 width="459.000000pt" height="543.000000pt" viewBox="0 0 459.000000 543.000000"
 preserveAspectRatio="xMidYMid meet">

<g transform="translate(0.000000,543.000000) scale(0.100000,-0.100000)"
fill="#000000" stroke="none">
<path d="M4098 4939 c-227 -205 -485 -439 -573 -519 -119 -108 -995 -897
-1191 -1072 -21 -19 -23 -17 -675 570 -360 324 -733 660 -830 748 -579 524
-702 634 -711 634 -8 0 -9 -248 -5 -862 4 -475 7 -1419 7 -2098 l0 -1235 218
-196 c654 -590 922 -829 929 -829 4 1 22 13 39 28 94 82 446 399 702 631 161
146 298 267 305 269 24 5 151 -95 343 -270 342 -311 725 -653 735 -656 5 -2
44 27 86 65 42 37 185 165 317 283 133 118 348 311 477 428 l236 212 5 2118
c4 1164 5 2118 3 2120 -2 2 -189 -164 -417 -369z m-3146 -1249 c95 -85 440
-395 766 -688 368 -332 597 -530 604 -526 6 4 214 190 462 413 248 223 590
531 760 683 169 153 312 278 317 278 5 0 9 -535 9 -1244 l0 -1244 -234 -211
c-129 -116 -237 -211 -241 -211 -11 0 -450 403 -450 414 0 6 109 110 243 230
l242 219 0 429 0 430 -57 -50 c-32 -28 -281 -251 -553 -496 -272 -245 -500
-446 -506 -446 -7 0 -113 91 -235 202 -573 517 -909 818 -914 818 -3 0 -5
-193 -5 -429 l0 -429 33 -27 c17 -15 142 -127 276 -248 l244 -221 -50 -45
c-28 -26 -126 -113 -218 -196 -91 -82 -170 -151 -174 -153 -4 -1 -121 99 -260
224 l-251 226 0 1230 c0 799 3 1229 10 1226 5 -1 87 -73 182 -158z"/>
</g>
</svg>
